<?xml version="1.0" standalone="no"?>
<!DOCTYPE svg PUBLIC "-//W3C//DTD SVG 20010904//EN"
 "http://www.w3.org/TR/2001/REC-SVG-20010904/DTD/svg10.dtd">
<svg version="1.0" xmlns="http://www.w3.org/2000/svg"
 width="1024.000000pt" height="1024.000000pt" viewBox="0 0 1024.000000 1024.000000"
 preserveAspectRatio="xMidYMid meet">
<metadata>
Created by potrace 1.14, written by Peter Selinger 2001-2017
</metadata>
<g transform="translate(0.000000,1024.000000) scale(0.100000,-0.100000)"
fill="#000000" stroke="none">
<path d="M910 10211 c0 -17 5 -33 10 -36 6 -4 10 -12 9 -18 -1 -7 0 -19 4 -27
3 -8 9 -28 13 -45 4 -16 8 -32 9 -35 8 -23 18 -48 25 -61 5 -9 7 -25 6 -35 -2
-11 1 -22 6 -25 5 -3 11 -15 13 -27 10 -47 14 -59 30 -105 9 -26 13 -51 10
-56 -3 -5 0 -11 5 -13 9 -3 15 -20 24 -75 1 -7 5 -16 9 -19 4 -4 7 -20 7 -36
0 -15 5 -28 11 -28 7 0 9 -10 7 -25 -3 -13 -1 -26 5 -28 9 -3 17 -36 21 -84 0
-13 6 -23 11 -23 6 0 11 -10 12 -22 3 -45 12 -81 20 -87 4 -3 8 -15 7 -26 0
-11 4 -25 9 -32 5 -7 6 -16 3 -21 -3 -6 0 -15 8 -21 8 -7 12 -20 9 -30 -3 -10
0 -22 6 -25 6 -4 11 -18 11 -31 0 -13 4 -26 9 -30 5 -3 8 -17 5 -30 -2 -14 0
-25 5 -25 9 0 27 -75 23 -92 -1 -5 2 -8 7 -8 9 0 20 -43 23 -87 1 -13 5 -23 9
-23 8 0 25 -88 21 -103 -1 -5 2 -6 8 -2 6 4 10 -6 10 -24 0 -17 5 -31 11 -31
5 0 8 -4 4 -9 -3 -6 3 -32 14 -60 10 -27 16 -52 13 -56 -3 -3 -1 -15 5 -28 19
-42 32 -90 27 -98 -3 -5 0 -9 6 -9 6 0 9 -4 5 -9 -3 -5 -1 -12 5 -16 6 -4 8
-10 5 -15 -3 -5 -1 -11 4 -14 5 -4 8 -17 6 -31 -1 -14 1 -25 5 -25 4 0 10 -12
13 -27 3 -16 8 -39 12 -53 4 -14 9 -36 12 -50 3 -14 9 -29 13 -35 4 -5 6 -18
5 -27 -2 -10 1 -18 6 -18 5 0 9 -11 9 -24 0 -14 5 -28 11 -31 5 -4 8 -12 6
-18 -2 -7 0 -21 6 -32 10 -19 17 -50 20 -87 1 -10 5 -18 9 -18 4 0 8 -10 8
-23 0 -13 5 -28 12 -35 7 -7 9 -12 5 -12 -3 0 -2 -12 4 -27 11 -28 19 -62 22
-95 1 -10 5 -18 9 -18 4 0 8 -11 8 -24 0 -14 5 -28 10 -31 6 -4 8 -10 5 -15
-3 -5 1 -22 8 -37 8 -15 13 -36 12 -45 -2 -10 1 -18 7 -18 6 0 8 -9 5 -20 -3
-10 0 -21 6 -23 7 -2 11 -16 9 -30 -1 -15 2 -27 7 -27 5 0 9 -12 9 -27 -1 -15
5 -29 11 -31 6 -2 9 -7 6 -12 -5 -8 20 -99 38 -137 6 -13 7 -26 4 -30 -4 -3
-2 -11 3 -18 5 -6 11 -21 13 -33 2 -12 6 -25 10 -28 4 -4 7 -20 7 -36 0 -16 4
-27 8 -24 4 3 7 -8 6 -25 -1 -16 2 -29 7 -29 5 0 9 -11 9 -25 0 -14 4 -25 8
-25 4 0 8 -10 9 -22 2 -33 11 -71 20 -77 5 -3 9 -15 10 -26 7 -54 12 -77 24
-91 6 -8 9 -17 7 -20 -3 -3 2 -26 11 -53 10 -26 17 -55 15 -64 -1 -9 2 -17 7
-17 5 0 9 -11 9 -25 0 -14 4 -25 9 -25 4 0 8 -8 8 -17 -1 -19 10 -67 21 -93 3
-8 7 -19 7 -25 3 -20 18 -70 24 -80 3 -5 6 -17 6 -25 0 -8 6 -25 13 -36 6 -12
9 -24 5 -27 -3 -4 -1 -12 4 -19 6 -7 9 -21 8 -30 -2 -10 0 -18 5 -18 7 0 18
-39 23 -85 1 -11 6 -23 11 -26 5 -4 9 -18 9 -33 0 -14 4 -26 9 -26 5 0 7 -3 5
-7 -3 -5 0 -19 6 -33 5 -14 9 -33 8 -42 -1 -10 3 -18 10 -18 7 0 10 -3 7 -6
-3 -3 1 -29 8 -57 8 -29 17 -60 19 -70 2 -9 7 -23 12 -30 4 -6 8 -19 8 -27 0
-8 4 -21 8 -27 5 -7 6 -13 3 -13 -3 0 -1 -12 5 -27 6 -16 13 -37 15 -48 10
-41 13 -50 14 -52 2 -2 3 -7 4 -12 0 -5 4 -12 8 -16 4 -4 4 -13 2 -20 -3 -7
-1 -16 5 -20 6 -3 11 -19 11 -35 0 -16 5 -32 11 -35 6 -4 8 -13 5 -21 -3 -8 0
-14 6 -14 6 0 9 -2 6 -6 -3 -3 0 -25 7 -49 8 -24 10 -47 7 -51 -4 -4 -2 -4 4
-1 8 4 14 -5 17 -26 6 -36 14 -72 17 -72 1 0 4 -13 6 -29 2 -16 7 -32 12 -35
5 -3 8 -14 6 -23 -1 -10 2 -20 7 -24 5 -3 9 -16 9 -29 0 -13 4 -26 9 -30 6 -3
8 -14 6 -25 -2 -11 2 -23 8 -27 7 -5 13 -19 15 -33 4 -38 7 -54 14 -65 5 -10
20 -68 19 -73 -1 -1 5 -15 14 -32 11 -21 12 -31 4 -36 -8 -5 -7 -9 4 -15 9 -5
14 -20 13 -34 -2 -13 1 -22 5 -19 5 3 9 -6 9 -20 0 -14 5 -28 11 -31 6 -4 8
-13 5 -20 -2 -7 1 -23 8 -37 7 -13 11 -29 8 -36 -2 -6 1 -12 7 -12 5 0 10 -8
10 -17 0 -10 5 -36 11 -58 6 -22 12 -47 14 -55 1 -9 6 -22 11 -30 5 -8 8 -23
7 -32 -2 -10 1 -18 6 -18 6 0 9 -8 7 -17 -1 -10 1 -23 6 -29 5 -6 10 -23 11
-38 1 -14 6 -26 10 -26 4 0 8 -11 8 -24 0 -14 4 -27 9 -31 6 -3 8 -14 6 -25
-2 -11 1 -20 7 -20 6 0 9 -3 5 -6 -3 -3 1 -23 8 -44 7 -21 11 -41 8 -44 -4 -3
0 -6 7 -6 7 0 11 -3 8 -6 -4 -3 -2 -20 4 -37 5 -18 11 -39 13 -47 2 -8 4 -15
5 -15 1 0 4 -11 6 -25 3 -14 9 -26 14 -28 4 -2 6 -14 4 -28 -2 -13 0 -24 6
-24 5 0 10 -13 10 -28 0 -16 3 -32 7 -36 4 -3 8 -12 9 -19 2 -7 9 -35 17 -64
8 -28 12 -54 9 -57 -3 -3 0 -6 6 -6 7 0 12 -11 12 -24 0 -14 4 -27 9 -30 5 -3
9 -17 9 -30 0 -13 6 -37 14 -53 8 -16 14 -39 13 -51 -1 -12 2 -22 7 -22 4 0 8
-11 8 -25 0 -14 4 -25 9 -25 6 0 8 -9 6 -20 -2 -11 1 -20 7 -20 6 0 8 -11 6
-25 -3 -13 -1 -26 3 -27 5 -2 10 -15 11 -30 1 -16 5 -28 9 -28 6 0 23 -78 20
-93 0 -4 6 -10 14 -13 8 -3 12 -10 9 -15 -5 -9 21 -110 37 -141 4 -9 6 -26 4
-37 -2 -12 0 -19 4 -16 8 4 14 -17 24 -77 2 -10 6 -21 10 -24 4 -4 7 -18 7
-31 0 -13 5 -23 11 -23 6 0 9 -9 6 -20 -3 -10 1 -27 8 -37 7 -9 11 -23 8 -30
-3 -7 0 -13 7 -13 7 0 10 -7 6 -15 -3 -9 -2 -23 4 -33 9 -17 23 -67 25 -87 0
-5 5 -17 10 -25 5 -8 8 -23 7 -33 -2 -9 1 -17 6 -17 6 0 9 -8 7 -17 -1 -10 1
-22 5 -28 7 -10 20 -51 27 -89 2 -11 8 -25 13 -31 6 -7 8 -20 4 -29 -4 -10 -1
-16 7 -16 7 0 10 -3 6 -6 -3 -3 1 -23 8 -44 7 -21 11 -41 8 -44 -4 -3 -1 -6 6
-6 8 0 11 -8 8 -20 -3 -11 0 -26 7 -33 7 -7 12 -20 10 -30 -1 -9 2 -17 7 -17
6 0 8 -14 5 -30 -3 -22 0 -30 10 -30 9 0 13 -4 10 -9 -6 -9 8 -62 23 -91 4 -8
7 -25 6 -38 -1 -12 2 -22 7 -22 4 0 8 -11 8 -25 0 -14 4 -25 8 -25 4 0 8 -8 9
-17 2 -34 14 -77 25 -90 6 -8 8 -16 6 -19 -3 -3 2 -26 11 -53 10 -26 17 -55
15 -64 -1 -9 2 -15 7 -11 5 3 9 -8 9 -25 0 -16 5 -33 11 -37 6 -3 9 -15 6 -25
-3 -11 -1 -19 4 -19 5 0 9 -11 9 -25 0 -14 4 -25 9 -25 6 0 8 -9 6 -20 -2 -11
0 -22 6 -25 5 -4 9 -19 9 -36 0 -16 4 -29 9 -29 5 0 8 -8 7 -17 -2 -10 0 -25
4 -33 34 -73 45 -90 61 -95 11 -4 19 -10 19 -15 0 -4 8 -11 18 -14 21 -8 47
-23 90 -54 17 -13 32 -20 32 -15 0 4 6 1 13 -7 7 -8 41 -33 77 -54 36 -22 68
-44 72 -50 4 -6 8 -7 8 -3 0 4 10 -1 22 -13 12 -11 28 -20 35 -20 7 0 13 -4
13 -10 0 -5 7 -10 15 -10 8 0 15 -4 15 -10 0 -5 6 -10 14 -10 8 0 21 -6 28
-12 25 -24 77 -58 88 -58 5 0 10 -4 10 -10 0 -5 6 -10 14 -10 8 0 21 -6 28
-13 7 -7 38 -28 68 -47 30 -19 57 -37 60 -40 6 -6 44 -28 81 -47 15 -7 32 -20
39 -28 7 -8 19 -15 26 -15 8 0 14 -4 14 -8 0 -5 18 -17 39 -27 22 -10 42 -24
45 -31 3 -8 13 -14 22 -14 9 0 25 -10 35 -22 11 -11 19 -18 19 -13 0 4 15 -4
34 -19 19 -14 39 -26 45 -26 5 0 15 -8 20 -17 6 -10 11 -14 11 -10 0 4 21 -7
48 -25 26 -18 50 -32 55 -30 4 1 7 -1 7 -6 0 -4 17 -16 38 -27 20 -11 41 -25
45 -32 4 -7 15 -13 22 -13 8 0 15 -4 15 -10 0 -5 9 -10 20 -10 11 0 20 -4 20
-10 0 -16 57 -40 77 -33 10 4 39 22 65 40 26 18 52 33 58 33 5 0 10 5 10 10 0
12 49 35 65 31 6 -2 7 1 3 4 -7 7 155 118 167 115 4 -1 15 8 24 19 10 12 22
21 26 21 5 0 17 8 28 17 15 13 19 14 13 3 -6 -12 -5 -12 6 1 7 8 28 24 46 34
17 11 32 23 32 28 0 4 5 5 10 2 6 -3 10 -2 10 2 0 8 29 26 62 39 10 3 18 10
18 15 0 5 7 9 15 9 8 0 15 5 15 11 0 5 4 8 9 5 5 -3 12 1 15 10 3 8 10 12 16
9 5 -3 10 -2 10 3 0 5 13 15 30 22 16 7 30 16 30 21 0 5 7 9 15 9 8 0 15 5 15
11 0 5 5 7 10 4 6 -3 10 -1 10 4 0 6 7 11 16 11 9 0 12 5 8 12 -4 6 -3 8 3 5
6 -4 22 3 37 14 14 11 26 18 26 15 0 -3 9 2 20 12 12 9 23 15 27 14 3 -2 9 0
12 5 9 13 100 73 112 73 5 0 9 5 9 11 0 5 5 7 10 4 6 -3 13 1 16 9 3 9 10 13
15 10 5 -3 9 0 9 5 0 6 5 11 11 11 6 0 30 14 54 30 24 17 48 30 54 30 5 0 14
8 20 17 5 10 13 15 16 11 4 -4 16 2 28 12 11 11 37 28 58 38 21 11 35 23 31
27 -4 4 -1 6 7 3 8 -2 27 9 43 25 26 28 32 40 29 60 0 4 3 7 9 7 5 0 10 9 10
19 0 11 4 22 9 25 4 3 8 16 7 28 -1 13 4 29 11 36 7 7 10 19 7 27 -4 8 -1 15
5 15 6 0 10 3 9 8 -2 9 10 53 34 127 11 33 21 67 23 75 2 8 11 35 19 59 9 24
14 47 11 51 -3 5 0 10 5 12 6 2 12 13 13 26 0 12 4 22 7 22 3 0 7 12 8 27 1
15 6 31 11 36 5 5 7 16 4 23 -3 8 0 14 6 14 6 0 10 3 9 8 -2 11 12 64 24 89 6
12 8 28 5 37 -3 8 -1 16 6 19 7 2 12 12 13 23 0 10 4 27 7 37 17 43 20 53 23
65 1 8 6 21 10 30 4 9 8 24 10 32 4 20 10 42 17 60 18 48 26 83 21 91 -3 5 0
9 5 9 6 0 11 9 11 19 0 11 4 22 9 25 5 4 8 14 6 24 -1 9 4 25 13 35 12 14 13
17 1 17 -11 1 -11 3 2 13 9 7 14 22 13 35 -2 12 0 22 5 22 5 0 11 12 14 28 7
34 12 53 21 74 4 9 5 21 2 26 -3 6 1 13 10 16 10 4 14 14 11 26 -3 11 -1 23 4
26 5 3 9 16 9 29 0 13 5 27 11 30 6 4 8 13 5 21 -3 8 -2 14 2 14 4 0 8 10 9
22 1 11 6 24 11 27 5 3 8 16 7 29 -1 12 2 22 6 22 6 0 12 22 21 75 2 11 6 22
10 25 4 3 8 17 10 30 2 14 7 31 11 38 5 6 6 16 2 21 -3 6 0 13 7 18 7 4 14 17
15 28 6 49 16 84 23 80 5 -3 7 6 4 20 -3 15 0 25 7 25 7 0 10 3 6 6 -3 4 0 22
8 40 8 19 11 34 8 34 -3 0 0 7 7 15 7 8 10 15 6 15 -3 0 0 15 8 34 8 19 12 37
9 40 -3 3 -1 11 4 18 12 16 27 68 24 86 -1 6 3 12 9 12 6 0 10 8 9 18 -2 16 2
29 22 80 5 13 9 32 9 42 0 11 4 20 8 20 4 0 8 8 9 18 2 28 12 63 21 76 5 6 8
19 7 28 -2 10 1 20 6 24 5 3 9 14 9 25 0 10 4 19 10 19 5 0 7 6 4 13 -3 8 4
35 15 61 12 26 20 50 20 54 -3 17 14 72 23 72 5 0 7 4 4 8 -3 5 2 28 10 53 18
49 24 71 31 112 3 15 9 27 12 27 4 0 8 6 9 13 5 43 12 71 19 76 5 3 9 13 9 21
2 29 17 80 24 80 3 0 6 10 5 22 -1 13 4 29 12 36 7 8 11 18 7 23 -3 6 -1 15 4
22 6 7 11 15 11 20 1 14 13 62 18 77 3 8 7 20 9 27 1 7 9 26 17 43 10 19 11
28 4 23 -7 -4 -6 1 2 10 8 10 11 20 8 24 -4 3 -2 11 3 18 5 6 11 20 13 31 1
10 6 25 10 32 5 6 6 16 3 21 -4 5 -2 11 3 13 6 1 12 14 14 28 3 14 15 53 26
88 12 35 19 67 16 73 -4 5 -1 9 4 9 6 0 11 11 11 25 0 14 4 25 9 25 5 0 9 12
9 26 0 15 4 29 9 33 6 3 9 14 7 24 -1 9 1 17 6 17 8 0 20 49 21 83 0 9 5 17
11 17 6 0 9 3 5 6 -3 3 1 25 10 47 8 23 17 53 19 67 3 13 10 30 15 36 5 7 9
16 8 20 -3 12 12 67 22 79 4 6 8 13 8 18 2 20 13 64 20 77 4 8 7 23 5 33 -1 9
1 17 6 17 8 0 24 55 23 78 0 6 3 12 7 12 4 0 10 12 13 28 7 34 12 53 21 74 4
9 5 21 2 27 -3 5 0 15 7 23 8 7 13 23 12 36 -1 12 2 22 7 22 4 0 8 11 8 23 0
13 3 27 7 31 4 3 8 17 10 29 2 12 7 23 12 25 5 2 7 12 4 22 -3 11 -1 20 5 20
6 0 9 9 7 20 -2 11 0 22 6 25 5 4 9 17 9 31 0 13 5 24 10 24 6 0 8 11 6 25 -3
14 -1 25 3 25 7 0 19 35 26 75 5 31 19 72 27 82 6 7 8 20 4 28 -3 8 -2 15 3
15 7 0 23 53 26 85 0 6 5 17 10 25 5 8 10 20 11 25 3 30 17 74 23 71 3 -2 7 8
8 22 4 44 9 66 20 87 6 11 8 26 6 33 -3 6 0 12 5 12 8 0 27 74 23 93 0 4 4 7
10 7 6 0 9 8 7 18 -3 10 1 27 8 36 7 10 10 24 7 32 -3 8 -1 14 5 14 8 0 27 73
23 93 0 4 3 7 7 7 4 0 8 8 9 18 1 9 8 37 17 62 9 25 16 53 16 63 0 9 5 17 11
17 6 0 9 7 5 15 -3 8 3 33 14 56 10 23 17 50 15 61 -2 10 0 18 6 18 5 0 9 11
9 25 0 14 4 25 9 25 5 0 8 11 7 24 -2 14 3 27 10 30 8 3 11 12 8 20 -3 8 -2
21 2 28 10 15 12 23 20 66 4 17 11 32 16 32 5 0 8 10 7 23 -2 12 1 29 6 37 5
8 10 20 12 25 7 34 13 55 27 93 8 23 12 42 9 42 -4 0 -2 5 5 12 7 7 12 23 12
36 0 13 4 21 9 18 4 -3 8 2 8 12 -1 21 13 73 23 87 4 6 6 20 5 32 -1 12 2 20
7 17 4 -3 8 6 8 20 0 14 4 26 9 26 5 0 8 11 6 25 -1 14 3 29 9 33 6 4 12 14
13 22 4 33 13 63 23 74 5 7 7 16 3 19 -3 4 0 13 6 21 7 8 10 19 7 25 -4 5 0
16 8 24 8 8 12 17 9 20 -3 4 -1 19 5 34 5 15 14 37 18 48 4 11 6 25 5 32 -1 6
3 14 9 18 5 3 10 17 10 31 0 13 4 24 9 24 5 0 8 8 6 18 -1 9 2 22 7 28 5 7 8
16 6 20 -1 5 3 19 10 32 7 12 10 22 6 22 -3 0 -1 6 5 13 6 8 8 17 4 20 -3 4 0
14 7 22 7 9 14 26 15 38 1 12 5 30 8 40 4 9 10 25 14 35 9 24 11 33 18 67 3
16 10 32 15 35 5 3 9 14 8 25 0 11 5 34 12 50 7 17 14 39 15 49 1 11 6 21 12
23 6 2 8 15 5 28 -2 14 0 25 6 25 6 0 11 8 11 18 1 35 14 82 23 82 5 0 8 6 7
13 -2 10 2 29 26 107 1 3 5 19 10 35 4 17 12 36 18 43 5 7 7 15 4 18 -3 3 1
20 8 39 8 18 11 35 8 39 -4 3 -1 6 5 6 6 0 9 9 7 20 -2 11 0 20 6 20 5 0 9 10
9 23 0 13 3 27 7 31 4 3 8 16 10 29 2 12 8 26 13 31 4 4 6 15 3 22 -3 8 -1 14
4 14 5 0 9 10 8 23 -1 12 3 25 9 29 6 4 12 15 12 25 2 28 16 63 24 63 4 0 5
11 2 25 -3 16 0 25 8 25 7 0 10 8 7 20 -3 11 0 23 6 28 7 4 12 12 13 17 1 29
17 85 24 85 5 0 7 8 5 18 -1 9 2 22 7 29 5 7 7 17 3 23 -3 5 1 13 9 16 9 3 16
16 16 28 l0 21 -1272 -1 c-700 -1 -1279 -2 -1286 -3 -8 0 -12 -7 -9 -13 2 -7
-2 -28 -9 -46 -7 -18 -13 -35 -14 -37 0 -8 -2 -20 -5 -30 -1 -5 -3 -18 -3 -28
-1 -10 -6 -16 -10 -13 -5 3 -6 -8 -4 -25 2 -16 0 -29 -6 -29 -6 0 -11 -8 -10
-17 0 -10 -5 -32 -10 -50 -6 -17 -8 -34 -4 -37 3 -3 0 -6 -7 -6 -7 0 -11 -6
-8 -12 2 -7 1 -20 -4 -29 -10 -19 -21 -66 -23 -96 0 -13 -6 -23 -11 -23 -6 0
-11 -12 -12 -27 -4 -48 -15 -93 -23 -93 -4 0 -7 -6 -7 -12 2 -33 -16 -97 -26
-91 -5 3 -7 2 -4 -4 4 -6 -2 -40 -13 -77 -10 -36 -19 -69 -19 -71 -2 -15 -15
-61 -20 -70 -3 -5 -6 -14 -7 -20 -1 -5 -5 -26 -9 -45 -3 -19 -10 -39 -14 -45
-5 -5 -7 -18 -6 -27 2 -10 -1 -20 -6 -24 -5 -3 -9 -16 -9 -30 0 -13 -4 -24 -9
-24 -4 0 -7 -11 -6 -25 2 -14 -1 -25 -7 -25 -6 0 -8 -11 -6 -25 3 -13 1 -26
-4 -27 -5 -2 -10 -16 -12 -31 -1 -15 -8 -33 -14 -39 -6 -6 -8 -17 -5 -24 3 -8
1 -20 -5 -27 -5 -6 -8 -20 -7 -29 2 -10 0 -18 -5 -18 -8 0 -19 -44 -22 -87 -1
-13 -6 -23 -11 -23 -5 0 -7 -11 -5 -24 3 -16 0 -27 -10 -31 -8 -3 -12 -8 -9
-11 3 -3 1 -20 -5 -37 -5 -18 -10 -40 -10 -49 1 -10 -4 -18 -9 -18 -6 0 -9 -6
-6 -12 2 -7 -2 -29 -9 -50 -7 -20 -10 -39 -7 -42 4 -3 0 -6 -7 -6 -7 0 -11 -2
-8 -6 3 -3 0 -25 -7 -49 -8 -24 -11 -46 -8 -49 4 -3 1 -6 -5 -6 -6 0 -11 -8
-11 -17 -1 -34 -13 -83 -21 -83 -5 0 -7 -8 -5 -17 1 -10 -4 -30 -11 -44 -7
-15 -11 -29 -8 -32 3 -3 2 -12 -2 -19 -5 -7 -9 -15 -9 -18 -4 -24 -19 -77 -24
-85 -4 -5 -7 -19 -7 -30 1 -11 -2 -22 -6 -25 -4 -3 -9 -17 -11 -30 -2 -14 -7
-33 -11 -42 -4 -9 -5 -21 -2 -27 3 -5 1 -11 -5 -13 -6 -2 -12 -18 -12 -36 -1
-18 -5 -32 -8 -32 -6 0 -23 -78 -20 -92 0 -5 -4 -8 -10 -8 -6 0 -9 -6 -6 -12
2 -7 -2 -26 -8 -43 -7 -16 -10 -36 -8 -42 3 -7 0 -13 -5 -13 -5 0 -12 -15 -15
-32 -6 -37 -11 -56 -21 -79 -4 -9 -6 -20 -4 -25 1 -5 -3 -18 -9 -29 -6 -11
-11 -22 -11 -25 -4 -41 -16 -90 -22 -90 -5 0 -7 -8 -5 -17 1 -10 -2 -24 -8
-31 -5 -7 -7 -15 -4 -19 4 -3 2 -14 -4 -25 -6 -11 -12 -27 -14 -36 -3 -9 -9
-35 -15 -57 -6 -22 -12 -47 -14 -55 -18 -74 -51 -186 -56 -190 -3 -3 -5 -12
-5 -20 1 -8 -5 -31 -13 -50 -7 -19 -15 -46 -16 -60 -2 -14 -6 -32 -9 -40 -10
-28 -21 -75 -20 -92 0 -10 -4 -15 -8 -12 -5 3 -9 -9 -9 -25 0 -17 -5 -31 -11
-31 -6 0 -8 -7 -5 -16 4 -9 2 -22 -3 -28 -5 -6 -12 -24 -14 -41 -10 -53 -50
-190 -57 -193 -4 -1 -5 -14 -2 -29 3 -17 1 -24 -6 -19 -6 3 -9 -1 -7 -11 1
-10 -3 -31 -10 -48 -6 -16 -10 -36 -8 -42 3 -7 1 -13 -4 -13 -5 0 -10 -12 -11
-26 -1 -15 -6 -32 -11 -38 -5 -6 -7 -19 -6 -28 2 -10 -1 -18 -6 -18 -5 0 -9
-13 -9 -29 0 -17 -4 -32 -9 -35 -5 -3 -7 -15 -4 -26 3 -12 0 -20 -6 -20 -7 0
-11 -8 -10 -17 1 -10 -1 -26 -5 -35 -4 -9 -9 -22 -10 -30 -1 -7 -9 -33 -16
-58 -8 -25 -15 -49 -15 -55 -1 -5 -8 -30 -15 -55 -7 -25 -14 -49 -15 -55 -1
-5 -4 -17 -7 -25 -11 -26 -21 -75 -19 -87 1 -7 -3 -13 -9 -13 -5 0 -9 -3 -8
-7 1 -5 -2 -26 -7 -48 -5 -22 -9 -43 -9 -47 -1 -3 -4 -10 -8 -14 -5 -4 -8 -17
-8 -29 0 -12 -3 -25 -7 -29 -5 -4 -8 -15 -9 -24 0 -9 -3 -24 -6 -32 -18 -46
-27 -83 -22 -91 3 -5 1 -9 -4 -9 -5 0 -9 -6 -10 -12 -1 -21 -7 -42 -13 -53 -4
-5 -5 -18 -4 -27 2 -10 0 -18 -4 -18 -4 0 -8 -7 -9 -15 -1 -8 -3 -22 -4 -30
-1 -8 -4 -15 -8 -15 -4 0 -7 -8 -7 -17 1 -23 -12 -72 -25 -100 -6 -11 -7 -26
-4 -32 4 -6 2 -11 -3 -11 -6 0 -11 -11 -11 -24 0 -14 -4 -27 -9 -31 -5 -3 -8
-16 -5 -30 2 -13 -1 -28 -8 -32 -7 -4 -14 -17 -15 -28 -1 -11 -4 -31 -5 -45
-2 -14 -7 -28 -12 -32 -5 -3 -10 -19 -11 -35 -2 -15 -4 -30 -6 -33 -3 -7 -6
-23 -8 -38 0 -7 -5 -11 -9 -8 -4 2 -7 -8 -6 -22 0 -15 -3 -34 -7 -42 -6 -12
-18 -52 -23 -80 -1 -3 -5 -11 -10 -18 -4 -7 -5 -16 -2 -19 3 -3 1 -13 -4 -23
-5 -9 -11 -28 -14 -41 -12 -60 -16 -72 -24 -83 -4 -6 -7 -21 -6 -33 0 -13 -3
-23 -8 -23 -5 0 -8 -8 -7 -17 1 -10 -1 -26 -5 -35 -4 -9 -9 -22 -10 -30 -2 -7
-6 -21 -11 -30 -4 -10 -5 -24 -2 -32 3 -8 -1 -17 -10 -20 -9 -4 -13 -13 -9
-22 4 -9 1 -22 -4 -30 -6 -7 -10 -18 -9 -26 3 -21 -12 -48 -27 -48 -13 0 -18
12 -15 33 0 4 -3 7 -8 7 -9 0 -20 43 -23 88 -1 12 -6 22 -10 22 -4 0 -8 16 -8
35 0 19 -4 35 -9 35 -5 0 -8 12 -7 27 2 15 -3 33 -11 41 -7 7 -11 18 -7 23 3
6 1 16 -5 23 -7 8 -11 18 -10 22 3 13 -13 88 -21 99 -4 6 -6 20 -5 32 1 13 -2
23 -7 23 -4 0 -8 13 -8 29 0 17 -4 32 -9 36 -6 3 -8 14 -6 25 2 11 0 22 -6 25
-5 4 -9 19 -9 35 0 16 -5 32 -11 35 -5 4 -8 12 -6 18 2 7 -2 29 -9 50 -7 20
-11 37 -7 37 3 0 0 7 -7 15 -6 8 -9 18 -6 24 3 5 0 21 -8 36 -8 15 -13 36 -11
46 2 11 -1 19 -6 19 -6 0 -9 6 -6 13 2 6 -1 26 -8 42 -6 17 -11 38 -9 48 1 9
-1 17 -6 17 -5 0 -7 8 -5 18 1 9 -1 22 -5 27 -7 9 -11 24 -25 95 -3 14 -8 32
-12 40 -3 8 -7 22 -8 30 -2 8 -6 26 -10 40 -3 14 -9 42 -12 63 -3 20 -9 37
-13 37 -4 0 -7 14 -8 32 0 17 -4 34 -9 37 -4 3 -9 15 -10 26 -5 42 -12 71 -22
98 -6 16 -9 33 -5 38 3 5 0 9 -6 9 -7 0 -10 6 -7 13 2 6 -1 26 -8 42 -6 17
-11 38 -9 48 1 9 -2 17 -8 17 -6 0 -8 8 -6 18 3 11 0 29 -7 42 -7 13 -10 31
-7 42 2 10 0 18 -6 18 -8 0 -19 39 -23 90 -1 8 -6 21 -12 28 -5 7 -7 15 -4 19
4 3 1 15 -5 27 -6 11 -12 32 -12 46 -1 14 -4 30 -7 35 -8 13 -23 74 -23 99 -1
11 -6 21 -12 23 -5 2 -9 17 -8 33 1 17 -2 30 -6 30 -5 0 -7 11 -5 25 1 14 -1
28 -5 30 -8 5 -25 74 -21 89 1 4 -4 14 -10 22 -7 8 -9 17 -6 21 4 3 1 15 -5
27 -7 11 -12 32 -13 46 0 14 -3 30 -6 35 -6 9 -11 28 -26 85 -2 8 -5 26 -7 40
-2 14 -9 38 -15 53 -6 15 -10 31 -9 35 1 4 -1 14 -4 22 -23 67 -27 84 -22 92
3 5 1 14 -4 21 -9 11 -24 64 -27 97 0 9 -5 21 -9 28 -4 7 -9 23 -11 35 -6 41
-16 81 -22 91 -4 5 -8 19 -9 30 -2 12 -5 32 -6 46 -2 14 -8 32 -13 39 -5 8
-10 24 -11 35 -1 12 -7 41 -14 66 -7 25 -13 50 -14 55 -1 6 -5 16 -9 23 -5 7
-6 21 -2 31 3 10 -1 23 -9 30 -8 7 -12 19 -9 27 3 8 0 21 -7 29 -7 8 -10 21
-7 30 4 8 1 20 -6 27 -7 7 -13 22 -13 33 -2 24 -10 64 -18 85 -5 15 -13 47
-23 103 -3 15 -9 27 -12 27 -4 0 -7 10 -6 23 1 12 -2 28 -7 34 -6 7 -8 19 -5
27 3 7 2 17 -3 22 -5 5 -11 25 -15 44 -4 19 -9 47 -12 63 -3 15 -8 27 -12 27
-4 0 -6 12 -6 28 1 15 -2 32 -6 37 -10 16 -22 68 -20 88 1 9 -3 17 -8 17 -6 0
-11 15 -11 34 0 19 -4 37 -9 41 -6 3 -8 14 -6 25 2 11 -2 25 -8 32 -7 7 -13
22 -13 33 -1 11 -5 34 -9 50 -4 17 -9 45 -12 63 -3 17 -9 32 -13 32 -4 0 -6
10 -6 23 1 12 -2 31 -8 42 -5 11 -11 27 -13 35 -1 8 -5 26 -8 40 -3 14 -8 42
-11 63 -4 20 -10 37 -14 37 -4 0 -6 10 -6 23 1 12 -2 27 -7 34 -8 11 -13 35
-20 88 -1 11 -7 27 -12 35 -5 8 -8 23 -7 33 2 10 -2 25 -8 32 -7 8 -10 21 -7
29 3 7 1 18 -6 25 -6 6 -12 21 -13 33 -5 48 -16 93 -24 96 -4 2 -6 12 -3 23 3
10 0 26 -7 34 -7 8 -10 21 -7 29 3 8 2 16 -3 18 -5 2 -10 14 -12 28 -2 14 -6
30 -9 35 -3 6 -5 19 -5 30 1 11 -4 25 -10 32 -6 6 -9 24 -6 39 4 20 2 25 -8
19 -10 -6 -12 -1 -8 19 3 14 0 34 -7 43 -7 9 -11 23 -8 30 3 7 0 19 -6 27 -7
8 -11 18 -10 22 2 10 -9 59 -19 84 -3 8 -7 26 -8 39 -2 13 -6 31 -10 40 -4 9
-6 22 -5 29 1 8 -3 20 -10 28 -6 8 -9 14 -5 14 3 0 0 15 -7 33 -8 17 -13 42
-12 55 1 12 -2 22 -7 22 -4 0 -8 13 -8 29 0 17 -4 32 -9 35 -5 4 -8 14 -6 24
1 9 -2 23 -8 30 -5 7 -7 15 -4 19 4 3 1 15 -5 27 -7 11 -12 31 -12 43 -1 12
-4 25 -8 29 -5 4 -8 20 -8 35 0 15 -5 31 -10 34 -6 4 -9 12 -8 18 5 25 -12 65
-29 69 -10 2 -573 4 -1251 3 -983 0 -1231 2 -1227 12 2 8 -4 13 -15 13 -15 0
-20 -7 -20 -29z"/>
</g>
</svg>
